<svg width="200" height="242" viewBox="0 0 200 242" fill="none" xmlns="http://www.w3.org/2000/svg">
<path d="M51.2457 233.212C50.581 233.56 49.8533 233.779 49.2201 234.191C43.73 237.918 37.5515 238.539 31.1954 237.827C29.0069 237.582 26.713 236.717 24.7931 235.56C19.2723 232.335 14.731 228.025 11.3951 222.605C10.4306 221.044 9.75872 219.27 9.34603 217.375C9.80886 217.751 10.3198 218.144 10.766 218.566C12.073 219.771 13.3634 221.023 14.7519 222.15C15.3425 222.624 16.1608 222.914 16.9477 223.139C17.2365 223.241 17.8198 222.971 17.9679 222.705C18.1161 222.44 18.0106 221.82 17.7866 221.687C14.1283 219.015 11.3995 215.399 8.40969 212.062C7.36001 210.896 6.475 210.795 5.44732 211.862C2.93457 214.523 1.12535 217.645 0.00485541 221.117C-0.0284808 221.211 0.114064 221.42 0.302879 221.805C3.50967 221.774 3.70996 218.454 5.95602 216.546C6.09296 217.23 6.16697 217.787 6.32244 218.265C9.80418 227.712 16.4763 234.419 25.3149 239.137C26.6275 239.866 28.2013 240.317 29.7287 240.593C35.3405 241.572 40.8247 241.076 46.0073 238.83C47.6755 238.095 49.1402 236.865 50.5715 235.729C51.1566 235.3 51.44 234.5 51.8177 233.891C51.6271 233.665 51.4364 233.438 51.2457 233.212Z" fill="currentColor"303030"/>
<path d="M78.2903 29.6496C79.2541 28.9004 79.468 28.4719 79.8965 28.258C111.289 20.4646 141.299 23.9223 168.857 41.4166C175.827 45.817 181.513 51.9309 185.806 59.2223C195.145 74.7703 193.341 93.7371 181.351 107.229C175.142 114.296 167.967 119.969 158.539 122.103C154.999 119.421 151.568 116.631 148.029 114.377C142.238 110.728 135.914 109.329 129.165 111.359C124.129 112.747 120.917 115.959 120.92 119.388C120.925 123.889 123.928 126.893 127.787 127.968C133.147 129.474 138.72 130.336 144.187 130.877C147.723 131.202 151.474 130.67 155.01 130.352C165.311 144.293 159.004 160.898 140.258 169.561C138.113 168.273 135.862 166.877 133.61 165.697C125.14 161.509 116.351 160.643 107.675 164.815C104.354 166.419 101.356 168.774 101.467 173.168C101.577 176.49 104.581 179.494 109.297 180.784C116.801 182.72 124.302 181.87 131.695 180.269C134.266 179.629 136.838 178.988 139.302 178.24C155.932 199.154 152.424 229.264 128.428 238.243C129.929 239.531 131.002 240.818 132.074 241.033C133.36 241.249 134.967 240.5 136.145 239.751C146.962 232.367 154.347 222.836 154.656 209.226C154.968 199.046 152.494 189.505 147.984 180.285C147.34 178.998 146.696 177.712 146.159 176.318C146.051 176.211 146.158 175.889 146.265 175.139C147.335 174.283 148.513 173.105 149.905 172.142C166.505 160.048 170.138 148.692 163.367 128.645C165.081 127.789 167.009 126.719 168.937 125.864C179.97 120.409 188.429 112.379 193.991 101.239C203.083 83.1368 200.17 62.6652 186.331 46.8986C178.821 38.3182 169.706 31.9867 159.306 27.3687C134.111 16.3067 108.282 13.603 81.6048 21.6153C80.212 21.9355 78.8193 22.47 77.4265 22.7902C77.2121 22.79 76.8905 22.6825 75.9257 22.3601C78.7078 17.8617 82.4557 14.7574 86.0963 11.5459C89.5226 8.3341 93.2705 5.22983 97.1252 1.80414C94.0151 -0.663635 91.4435 -0.237407 88.9798 0.939092C86.1949 2.43679 83.1954 3.71995 80.9468 5.75398C74.9508 11.321 68.9549 17.1023 63.3881 23.3127C59.1061 28.2383 60.2885 31.9903 66.0771 33.7104C78.4047 37.2586 90.8393 40.6997 103.274 44.1408C105.311 44.6786 107.347 44.7876 110.026 45.1117C109.701 40.7175 107.128 39.8578 104.769 38.9982C95.979 36.2036 87.5099 33.0877 78.2903 29.6496ZM107.897 173.174C116.25 166.752 125.574 166.868 132.545 173.197C124.402 174.904 116.795 176.719 107.897 173.174ZM127.459 120.359C135.277 115.544 142.566 116.837 148.467 124.023C140.966 124.659 134.214 124.974 127.459 120.359Z" fill="currentColor""/>
</svg>
