<svg width="24" height="24" viewBox="0 0 24 24" fill="none" xmlns="http://www.w3.org/2000/svg">
<path d="M21.9996 10.2724C21.1949 10.0941 20.3584 10 19.5 10C13.3199 10 8.27841 14.8749 8.01114 20.9892M8.01114 20.9892C6.46538 20.96 5.50985 20.8524 4.73005 20.455C3.78924 19.9757 3.02433 19.2108 2.54497 18.27C2 17.2004 2 15.8003 2 13V11C2 8.19974 2 6.79961 2.54497 5.73005C3.02433 4.78924 3.78924 4.02433 4.73005 3.54497C5.79961 3 7.19974 3 10 3H14C16.8003 3 18.2004 3 19.27 3.54497C20.2108 4.02433 20.9757 4.78924 21.455 5.73005C21.9506 6.70268 21.9955 7.94869 21.9996 10.2724C22 10.504 22 10.7462 22 11V13C22 15.8003 22 17.2004 21.455 18.27C20.9757 19.2108 20.2108 19.9757 19.27 20.455C18.2004 21 16.8003 21 14 21H10C9.24138 21 8.58551 21 8.01114 20.9892ZM7.5 10C6.67157 10 6 9.32843 6 8.5C6 7.67157 6.67157 7 7.5 7C8.32843 7 9 7.67157 9 8.5C9 9.32843 8.32843 10 7.5 10Z" stroke="#0D0D0D" stroke-width="2" stroke-linecap="round" stroke-linejoin="round"/>
</svg>
