<svg width="24" height="24" viewBox="0 0 24 24" fill="none" xmlns="http://www.w3.org/2000/svg">
<g clip-path="url(#clip0_897_2124)">
<path d="M21.0251 4.17512C21.4134 4.32187 21.7694 4.5437 22.072 4.82787C22.3746 5.11202 22.6186 5.45292 22.7895 5.83121C22.9603 6.20954 23.0546 6.61824 23.0677 7.03315C23.0808 7.44822 23.0118 7.86246 22.8651 8.25094L17.7907 21.6995C17.6442 22.0879 17.4229 22.444 17.1389 22.7468C16.8549 23.0496 16.5138 23.2931 16.1355 23.4642C15.7572 23.6354 15.3489 23.7313 14.9338 23.7446C14.5187 23.7579 14.1046 23.6885 13.716 23.542L2.95927 19.4831C2.17472 19.187 1.5394 18.5908 1.19398 17.8266C0.848756 17.0627 0.820951 16.1928 1.11677 15.4084L6.1902 1.95951C6.33669 1.57104 6.55808 1.21508 6.84204 0.912213C7.12611 0.609293 7.46736 0.365021 7.84573 0.193873C8.22412 0.0227238 8.63293 -0.0719777 9.04801 -0.0852864C9.46299 -0.0985534 9.87675 -0.0304304 10.2652 0.116093L21.0251 4.17512ZM7.45408 11.6546C7.24019 11.574 7.0029 11.582 6.79465 11.6762C6.58645 11.7703 6.4237 11.9433 6.34291 12.157C6.26256 12.3708 6.27078 12.6075 6.36483 12.8156C6.45899 13.0238 6.63192 13.1865 6.84571 13.2673L12.2253 15.2977C12.3313 15.3376 12.444 15.3566 12.5572 15.353C12.6705 15.3493 12.7824 15.3232 12.8856 15.2765C12.9888 15.2298 13.0816 15.1627 13.1591 15.0801C13.2365 14.9974 13.2968 14.9003 13.3368 14.7943C13.3767 14.6884 13.3957 14.5756 13.3921 14.4624C13.3884 14.3491 13.3623 14.2373 13.3156 14.134C13.2689 14.0309 13.2018 13.938 13.1192 13.8606C13.0365 13.7832 12.9394 13.7228 12.8334 13.6828L7.45408 11.6546ZM8.77262 8.15656C8.55872 8.07618 8.32136 8.08386 8.11319 8.17813C7.9049 8.27252 7.7426 8.44626 7.66203 8.66027C7.62197 8.76623 7.60353 8.87805 7.60709 8.99128C7.61066 9.10447 7.63607 9.21615 7.68268 9.31935C7.7293 9.42252 7.79653 9.51531 7.87908 9.59279C7.96163 9.67023 8.05859 9.73145 8.16448 9.77143L16.2307 12.8143C16.3367 12.8543 16.4494 12.8732 16.5626 12.8696C16.6759 12.8659 16.7878 12.8398 16.891 12.7931C16.9942 12.7464 17.087 12.6793 17.1645 12.5967C17.2419 12.5141 17.3023 12.4169 17.3422 12.311C17.3821 12.205 17.4012 12.0922 17.3975 11.979C17.3938 11.8658 17.3677 11.7539 17.321 11.6506C17.2743 11.5477 17.2079 11.4549 17.1255 11.3775C17.0428 11.3 16.9449 11.2394 16.8389 11.1994L8.77262 8.15656ZM10.0926 4.66014C9.98677 4.62015 9.8735 4.60221 9.76038 4.60577C9.64735 4.60937 9.53629 4.63519 9.43322 4.6817C9.33008 4.72828 9.2367 4.79437 9.15921 4.87685C9.08176 4.95935 9.0215 5.05674 8.98149 5.16259C8.94146 5.26847 8.92268 5.38138 8.9262 5.49451C8.92976 5.60772 8.95519 5.71935 9.00179 5.82258C9.04838 5.92573 9.11445 6.0191 9.19694 6.0966C9.27942 6.17402 9.37686 6.2343 9.48268 6.27432L17.5498 9.31755C17.7637 9.39807 18.001 9.39014 18.2092 9.29598C18.4177 9.20171 18.5806 9.02822 18.6613 8.81419C18.7419 8.60031 18.7339 8.36303 18.6398 8.15476C18.5455 7.94636 18.372 7.78338 18.158 7.70268L10.0926 4.66014Z" fill="currentColor""/>
</g>
<defs>
<clipPath id="clip0_897_2124">
<rect width="24" height="24" fill="white"/>
</clipPath>
</defs>
</svg>
